<svg xmlns="http://www.w3.org/2000/svg" viewBox="0 0 136 115.74"><defs><style>.cls-1{fill:#fff;}</style></defs><g id="圖層_2" data-name="圖層 2"><g id="圖層_1-2" data-name="圖層 1"><path class="cls-1" d="M107.25,70.5H32.94l.13-1.12C35.15,52,52.17,2.1,69.6.08V0h2V.09C89,2.13,105,49.33,107.13,69.39Zm-72-2H105C102.13,45.51,85.28,2.3,70.61,2,55.3,2.17,38,48.32,35.2,68.5Z"/><path class="cls-1" d="M33.25,70.08c-.62-.87-15-21.29-13.69-29.36C22.29,24.27,60.88-1,69.73,0L69.5,2c-7.62-.88-45.48,24-48,39-1,6,9.29,22.16,13.34,27.87Z"/><path class="cls-1" d="M47.07,69.76l-1.93-.53C54.55,35,63.58,18.57,72.73,19c14.87.79,22.81,48.28,23.14,50.31l-2,.32C91.72,56.33,83.64,21.61,72.62,21,67.15,20.74,58.28,29,47.07,69.76Z"/><path class="cls-1" d="M45.67,69.8l3.62-4.39c11.59-14,9.12-18.4,9.1-18.44l-.5-.8.8-.51c11-6.32,11.59-25.24,11.59-25.43l1.83,0c0,32.55-21.41,46.39-21.62,46.52Zm14.62-23c.43,1.59.43,5.32-4.23,12.54A53.79,53.79,0,0,0,67.88,38,21.73,21.73,0,0,1,60.29,46.83Z"/><rect class="cls-1" x="70.29" y="20.25" width="2" height="49.25" transform="translate(-0.16 0.26) rotate(-0.21)"/><path class="cls-1" d="M8.42,97.79a70.48,70.48,0,0,1-3.3,9.38c-1,2-1.8,3.07-2.53,3.07-.44,0-1-.51-1.62-1.51a5.35,5.35,0,0,1-1-2.87,7.11,7.11,0,0,1,.86-3.09,26.72,26.72,0,0,1,2.77-4.21,55.08,55.08,0,0,0,1.23-5.75,31.24,31.24,0,0,0,.41-4.87c0-.31,0-.72,0-1.23s-.08-1.23-.15-2.16l5.61-1.4c-.06,1.12-.25,2.77-.57,4.94s-.75,4.57-1.27,7.18c1.12-.44,2.27-.85,3.44-1.24s2.38-.74,3.6-1.06c.42-1.53.86-3,1.34-4.38s1-2.72,1.47-4l5.94-1.47A66.82,66.82,0,0,0,20,95a38.92,38.92,0,0,0-1.57,10.48c0,.89,0,1.57,0,2s0,.88.08,1.28L13,110.24v-.95a41.88,41.88,0,0,1,.46-6.12,55.76,55.76,0,0,1,1.4-6.57l-.79-.09a6.51,6.51,0,0,0-.75,0,9.53,9.53,0,0,0-2.47.33A10.9,10.9,0,0,0,8.42,97.79Z"/><path class="cls-1" d="M28,110.33a11.09,11.09,0,0,1-3.3-2.84,5.38,5.38,0,0,1-1.14-3.24,12.71,12.71,0,0,1,2-6.8A14.81,14.81,0,0,1,31,92.3l1.29,1.17,4.79-1.2.63.59a9.77,9.77,0,0,1,.51,1.72,9.51,9.51,0,0,1,.18,1.85,13.28,13.28,0,0,1-2.83,8.09A17.91,17.91,0,0,1,28,110.33Zm1-3.53a12.39,12.39,0,0,0,3.49-4,10.42,10.42,0,0,0,1.16-4.9,6.91,6.91,0,0,0-.2-1.68,5.21,5.21,0,0,0-.57-1.39l-.56,0a12.78,12.78,0,0,0-2.9,4.66,15.78,15.78,0,0,0-1.15,5.7v.36c0,.12,0,.31.07.56Z"/><path class="cls-1" d="M41,106.52c0-.36,0-.71-.06-1s0-.68,0-1a24.34,24.34,0,0,1,.59-5.08,42.05,42.05,0,0,1,1.82-5.92l5.13-1.16a39.16,39.16,0,0,0-2.39,6.53,23.37,23.37,0,0,0-.85,5.73v.15l.63.66a5.82,5.82,0,0,0,1.75-1.24,20.82,20.82,0,0,0,2.17-2.53c.11-3.37.64-5.75,1.59-7.16a5.06,5.06,0,0,1,4.52-2.11,1.2,1.2,0,0,1,.82.23.91.91,0,0,1,.25.72A6.61,6.61,0,0,1,56.1,96a15.8,15.8,0,0,1-2.23,3.29c0,.1,0,.2,0,.32s0,.26,0,.45a13.66,13.66,0,0,0,.24,2.65,6.86,6.86,0,0,0,.71,2,20.92,20.92,0,0,0,3.84-4.55c1.1-1.74,1.65-2.89,1.65-3.46,0-.06-.17-.59-.51-1.57a8.74,8.74,0,0,1-.51-2.83,1.71,1.71,0,0,1,.25-.93,6,6,0,0,1,1.13-1.16,15.76,15.76,0,0,1,2.07-1.57,2.31,2.31,0,0,1,1.13-.36.81.81,0,0,1,.64.22,1.15,1.15,0,0,1,.2.76,20.89,20.89,0,0,1-1.33,6A39.59,39.59,0,0,1,60,102.71a34.88,34.88,0,0,1-3.87,5.36q-2,2.22-2.7,2.22c-.45,0-1-.57-1.6-1.73a20.22,20.22,0,0,1-1.61-4.44,35.09,35.09,0,0,1-3.52,4.38c-1.15,1.19-1.89,1.79-2.24,1.79s-.74-.41-1.56-1.22A9,9,0,0,1,41,106.52Z"/><path class="cls-1" d="M90.41,97.69a3.41,3.41,0,0,1,2.07.6,2.89,2.89,0,0,1,.76,2q0,1.14-3,3,5.46-.57,9.83-.75c.41.12.61.32.61.61a4.37,4.37,0,0,1-.61,1.14,6.94,6.94,0,0,1-.68,1.4c0,.59-.52.89-1.43.89-2.93.17-5.67.4-8.22.71v.58q-.8,4.43-8.94,7.29a2.72,2.72,0,0,1-1.4.57,1.51,1.51,0,0,1-1.28-.43,4.18,4.18,0,0,1-.54-1.57,12.09,12.09,0,0,1-.14-2,1.21,1.21,0,0,1,.68-1.11c4.79-1,7.28-2,7.47-2.86L83.9,108q-14.34,2-15.59,2a6.07,6.07,0,0,1-1.78-.25,1.09,1.09,0,0,1-.51-1,6,6,0,0,1,1.61-2.54,3.3,3.3,0,0,1,2.15-1.29c.26.19.52.37.79.54a2,2,0,0,0,1.25.29q4.29-.44,12.73-1.58a1.81,1.81,0,0,0-.36-.43l-.07-.1.07-.15a29.26,29.26,0,0,0,3.5-1.71c0-.29-.21-.43-.64-.43a58.78,58.78,0,0,0-6.29,1q-4.65,1.32-7.94,2.33c-.91,0-1.36-.34-1.36-1a6.33,6.33,0,0,1,1-2.61,5.22,5.22,0,0,1,1.75-1.72l.5.29a1.1,1.1,0,0,0,.58.6Q85.66,97.69,90.41,97.69ZM85.94,84.24h1a110.45,110.45,0,0,0,11.19-1.43c.24,0,.36.16.36.47-.34.76-.68,1.56-1,2.39a1.48,1.48,0,0,1-1.39,1.15,74.42,74.42,0,0,1-8.37,1.32A122.64,122.64,0,0,1,71.57,89c-1.55-.31-2.33-.9-2.33-1.75.26-1.15,1.3-2.29,3.11-3.44H73a2.3,2.3,0,0,1,.72.61,3.12,3.12,0,0,0,2,.43q2.92,0,5.93-.14a5.26,5.26,0,0,1,1-1.43A3.91,3.91,0,0,1,85.37,82c.4,0,.61.27.61.82S86,83.79,85.94,84.24Zm-7.29,6.15c1.62-.28,3.21-.56,4.79-.82L90,88.82c2.64,0,4.34,1.35,5.07,4A18.09,18.09,0,0,1,95.85,97c0,.28-.16.43-.47.43H91a.64.64,0,0,1-.72-.72V96.4a91.39,91.39,0,0,1-14,1.75c-2.82,0-4.4-.91-4.76-2.72a5.45,5.45,0,0,1,1.82-3.61,10,10,0,0,1,4.29-2.54c.77,0,1.15.32,1.15,1C78.69,90.25,78.67,90.3,78.65,90.39ZM90,93.4a3.19,3.19,0,0,0-.07-.54c-.1-.48-.73-.72-1.9-.72s-4.62.52-10.51,1.26c0,.31-.08.56-.1.75a.6.6,0,0,0,.67.68A102.36,102.36,0,0,0,90,93.4Z"/><path class="cls-1" d="M120.45,105.41c-.1.4-.18.75-.25,1a66.49,66.49,0,0,1,7.29-.43c3.69.47,5.9,2.09,6.61,4.86a24.23,24.23,0,0,1,.33,3.68c0,.5-.29.75-.86.75h-4.08c-.55,0-.82-.33-.82-1v-.43a150.34,150.34,0,0,1-18.45,1.43q-4,0-4.47-2.71a5.55,5.55,0,0,1,1.64-3.58,8.67,8.67,0,0,1,3.87-2.43c.74,0,1.1.29,1.1.86l-.14.28c1.22-.19,2.41-.39,3.58-.6.21-.46.43-.87.64-1.26-1.1.1-2.19.15-3.29.15q-3.75,0-4.15-2.33a4.68,4.68,0,0,1,1.54-3.25,9.08,9.08,0,0,1,3.68-2.29c-1.4.1-2.9.24-4.5.43l-1.57,4a.84.84,0,0,1-.54.18,10.57,10.57,0,0,1-3.36-1,1,1,0,0,1-.43-.9,13.3,13.3,0,0,1,3.07-4.43l1.22-1a.29.29,0,0,1-.25-.14.49.49,0,0,1-.54-.46c.1-.36.3-1,.61-1.86s.86-1.77,1.36-2.72c.17-.36.33-.68.5-1a6.55,6.55,0,0,1-1.72.83.69.69,0,0,1-.68-.4l-.64-2.32c-.26-.84-.54-1.78-.82-2.83,0-.5.23-.75.68-.75a5.74,5.74,0,0,1,2.25,1.33,11.64,11.64,0,0,1,2.07,2.25,17,17,0,0,1,3.79-4.58,2.14,2.14,0,0,1,1-.71c.55,0,.82.34.82,1-.47,1-.91,1.91-1.32,2.86a19.06,19.06,0,0,1,2.5-1.14l.61-.29a1.4,1.4,0,0,1,.86,0c.24.1.36.24.36.43v.25q-.07.44-4.22,4.33a.51.51,0,0,1-.43.25c-.22,0-.57-.23-1.07-.68q-.28.57-.54,1.11L119,92.57a.87.87,0,0,1,.35.68,3.69,3.69,0,0,1-1.18,1.29c1.1-.1,2.12-.18,3.08-.25a.74.74,0,0,1-.29-.43,12.38,12.38,0,0,1,.61-1.72q.57-1.14,1.32-2.43c0-.09,0-.14,0-.14a1.3,1.3,0,0,1-.68.25.71.71,0,0,1-.72-.39c-.19-.6-.4-1.33-.64-2.18s-.58-1.59-.89-2.54c0-.5.24-.75.71-.75A7,7,0,0,1,123,85.14c.77.66,1.35,1.19,1.76,1.57a14.2,14.2,0,0,1,3.43-3.9,2.57,2.57,0,0,1,1.07-.71.92.92,0,0,1,.82,1c-.5,1-.95,1.91-1.35,2.86.95-.4,2.15-.88,3.61-1.43l.64-.32a1.28,1.28,0,0,1,.82,0,.54.54,0,0,1,.36.47V85c0,.26-1.58,1.65-4.61,4.15a.71.71,0,0,1-.47.14c-.21,0-.59-.29-1.14-.89a.4.4,0,0,0-.29-.14,1.55,1.55,0,0,0-.21.43,1.4,1.4,0,0,0-.18.32l7,2.68a.79.79,0,0,1,.36.61,5.36,5.36,0,0,1-1.54,1.86,4.4,4.4,0,0,1,2.14,3,10.77,10.77,0,0,1,.79,3.68q-.1.75-.72.75H131.1q-.57,0-.57-.6a23.08,23.08,0,0,1,.18-3.29c-.17-.65-.81-1-1.93-1q-2.32,0-14.52,1.43c.55,0,.87.19,1,.57a65,65,0,0,1,7.68-1q6.12,0,7.12,3.75a8.36,8.36,0,0,1,.68,3c-.05.55-.24.83-.57.83H126.7c-.54,0-.82-.18-.82-.54v-.14A48.45,48.45,0,0,1,120.45,105.41ZM115.15,95a4.43,4.43,0,0,0-.5-.29c-.9-.45-1.77-.93-2.61-1.43a5,5,0,0,1-.28.75,14.25,14.25,0,0,1-.68,1.58C112.53,95.39,113.89,95.18,115.15,95Zm13.59,15.91v-.14q-.21-1.58-3.36-1.86a63.78,63.78,0,0,0-14.12,2.43c0,.48.21.71.64.71Q119.52,111.89,128.74,110.88Zm-14.48-9.3a5.14,5.14,0,0,0-.14.83q0,.75.6.75a87.52,87.52,0,0,0,11.16-1.43q-.18-1.29-2.43-1.29A47.71,47.71,0,0,0,114.26,101.58Zm14.62-8.18c-1-.46-2.06-.93-3-1.44-.17.41-.33.79-.47,1.15s-.21.56-.29.75C126.55,93.67,127.81,93.51,128.88,93.4Z"/></g></g></svg>