<svg id="圖層_1" data-name="圖層 1" xmlns="http://www.w3.org/2000/svg" viewBox="0 0 281.07 70.5"><defs><style>.cls-1{fill:#1d976c;}</style></defs><path class="cls-1" d="M521.25,275.5H446.94l.13-1.12c2.08-17.43,19.1-67.28,36.53-69.29V205h2v.06c17.38,2,33.33,49.24,35.51,69.3Zm-72.05-2H519c-2.89-23-19.74-66.2-34.41-66.47C469.3,207.18,452,253.32,449.2,273.5Z" transform="translate(-433.48 -205)"/><path class="cls-1" d="M447.25,275.08c-.62-.87-15-21.29-13.69-29.35,2.73-16.46,41.32-41.69,50.17-40.7l-.23,2c-7.62-.88-45.48,24-48,39-1,6,9.29,22.16,13.34,27.87Z" transform="translate(-433.48 -205)"/><path class="cls-1" d="M461.07,274.76l-1.93-.52c9.41-34.27,18.44-50.67,27.59-50.21,14.87.79,22.81,48.29,23.14,50.31l-2,.32c-2.18-13.33-10.26-48.05-21.28-48.63C481.15,225.75,472.28,234,461.07,274.76Z" transform="translate(-433.48 -205)"/><path class="cls-1" d="M459.67,274.8l3.62-4.38c11.59-14,9.12-18.4,9.1-18.45l-.5-.8.8-.51c11.05-6.32,11.59-25.24,11.59-25.43l1.83,0c0,32.56-21.41,46.39-21.62,46.53Zm14.62-23c.43,1.59.43,5.31-4.23,12.53A53.79,53.79,0,0,0,481.88,243,21.82,21.82,0,0,1,474.29,251.84Z" transform="translate(-433.48 -205)"/><rect class="cls-1" x="484.29" y="225.25" width="2" height="49.25" transform="translate(-434.37 -203.26) rotate(-0.21)"/><path class="cls-1" d="M541.43,246.39A97.1,97.1,0,0,1,537,259.11c-1.3,2.78-2.45,4.16-3.43,4.16-.6,0-1.34-.68-2.21-2a7.28,7.28,0,0,1-1.31-3.89,9.72,9.72,0,0,1,1.16-4.19,37.17,37.17,0,0,1,3.76-5.71,75,75,0,0,0,1.68-7.81,43.42,43.42,0,0,0,.56-6.6c0-.42,0-1-.06-1.67s-.11-1.68-.21-2.94l7.62-1.89q-.12,2.28-.78,6.71T542,243q2.28-.9,4.67-1.69c1.59-.52,3.22-1,4.89-1.44.56-2.07,1.17-4.05,1.81-6s1.3-3.68,2-5.38l8-2a91,91,0,0,0-6.35,16.07,52.76,52.76,0,0,0-2.14,14.23c0,1.21,0,2.13,0,2.75s.06,1.2.11,1.74l-7.45,2V262a57,57,0,0,1,.63-8.31,76.32,76.32,0,0,1,1.89-8.92c-.36,0-.71-.09-1.07-.12s-.69,0-1,0a12.79,12.79,0,0,0-3.34.45A14.52,14.52,0,0,0,541.43,246.39Z" transform="translate(-433.48 -205)"/><path class="cls-1" d="M568,263.4a14.92,14.92,0,0,1-4.47-3.85,7.32,7.32,0,0,1-1.54-4.4,17.24,17.24,0,0,1,2.7-9.22,20,20,0,0,1,7.39-7l1.74,1.58,6.51-1.63.85.8a12.73,12.73,0,0,1,.94,4.85,18,18,0,0,1-3.84,11A24.41,24.41,0,0,1,568,263.4Zm1.36-4.78a16.82,16.82,0,0,0,4.74-5.49,14.08,14.08,0,0,0,1.57-6.64,9.16,9.16,0,0,0-.27-2.29,7.21,7.21,0,0,0-.77-1.89l-.76.05a17.24,17.24,0,0,0-3.94,6.33,21.52,21.52,0,0,0-1.56,7.74c0,.16,0,.33,0,.49s0,.41.08.75Z" transform="translate(-433.48 -205)"/><path class="cls-1" d="M585.61,258.23c0-.49-.06-1-.08-1.41s0-.93,0-1.43a32.41,32.41,0,0,1,.81-6.89,56.15,56.15,0,0,1,2.46-8l7-1.58a52.36,52.36,0,0,0-3.24,8.87,31.07,31.07,0,0,0-1.15,7.77v.2l.84.9a7.6,7.6,0,0,0,2.38-1.69,26.89,26.89,0,0,0,2.94-3.43q.24-6.84,2.16-9.71c1.27-1.91,3.32-2.86,6.13-2.86a1.69,1.69,0,0,1,1.12.3,1.26,1.26,0,0,1,.34,1,9,9,0,0,1-1.14,3.72,21.57,21.57,0,0,1-3,4.48c0,.13,0,.27,0,.42s0,.36,0,.62a18.34,18.34,0,0,0,.33,3.59,9.17,9.17,0,0,0,1,2.77,29.23,29.23,0,0,0,5.21-6.18c1.49-2.35,2.23-3.92,2.23-4.69,0-.08-.23-.8-.69-2.14a11.81,11.81,0,0,1-.69-3.83,2.33,2.33,0,0,1,.34-1.26,8.3,8.3,0,0,1,1.53-1.58,23.35,23.35,0,0,1,2.81-2.13,3.12,3.12,0,0,1,1.53-.49,1.09,1.09,0,0,1,.87.3,1.57,1.57,0,0,1,.27,1,28.33,28.33,0,0,1-1.79,8.07,54,54,0,0,1-4.61,10.13,46.26,46.26,0,0,1-5.26,7.28c-1.8,2-3,3-3.65,3s-1.34-.78-2.17-2.34a27.76,27.76,0,0,1-2.19-6,47.79,47.79,0,0,1-4.77,5.94c-1.56,1.62-2.58,2.43-3,2.43-.29,0-1-.56-2.12-1.67A12.16,12.16,0,0,1,585.61,258.23Z" transform="translate(-433.48 -205)"/><path class="cls-1" d="M652.69,246.24a4.59,4.59,0,0,1,2.81.83,3.87,3.87,0,0,1,1,2.71q0,1.56-4,4.08,7.43-.78,13.35-1c.55.16.82.44.82.83a6.1,6.1,0,0,1-.82,1.55,9.2,9.2,0,0,1-.93,1.89c-.06.81-.71,1.21-1.94,1.21q-6,.35-11.16,1v.77q-1.06,6-12.13,9.9a3.73,3.73,0,0,1-1.89.78,2.11,2.11,0,0,1-1.75-.59,5.89,5.89,0,0,1-.72-2.13,17,17,0,0,1-.2-2.77,1.68,1.68,0,0,1,.92-1.5q9.76-2.13,10.14-3.88l-2.32.39q-19.47,2.66-21.16,2.66a7.93,7.93,0,0,1-2.43-.34,1.46,1.46,0,0,1-.67-1.4,8,8,0,0,1,2.18-3.45q1.65-1.74,2.91-1.74c.36.25.71.5,1.07.72a2.64,2.64,0,0,0,1.7.39q5.82-.58,17.27-2.13a2.16,2.16,0,0,0-.49-.59l-.09-.14.09-.2a37.82,37.82,0,0,0,4.76-2.32c0-.39-.29-.59-.87-.59a80.41,80.41,0,0,0-8.54,1.31q-6.32,1.8-10.78,3.16c-1.23,0-1.84-.46-1.84-1.36a8.58,8.58,0,0,1,1.36-3.54,7.05,7.05,0,0,1,2.38-2.33l.68.39a1.48,1.48,0,0,0,.77.82Q646.23,246.25,652.69,246.24ZM646.62,228H648q7.56-.58,15.19-1.94.48,0,.48.63l-1.41,3.25a2,2,0,0,1-1.89,1.55,100.69,100.69,0,0,1-11.35,1.8,167.23,167.23,0,0,1-21.93,1.16C625,234,624,233.24,624,232.07c.36-1.55,1.76-3.1,4.22-4.65H629a3,3,0,0,1,1,.82,4.28,4.28,0,0,0,2.72.58q4,0,8-.19a6.8,6.8,0,0,1,1.41-1.94,5.27,5.27,0,0,1,3.69-1.75c.55,0,.82.37.82,1.12S646.65,227.38,646.62,228Zm-9.9,8.34c2.2-.38,4.37-.76,6.51-1.11l8.92-1q5.39,0,6.89,5.48a24.21,24.21,0,0,1,1,5.63c0,.39-.21.58-.63.58h-6a.86.86,0,0,1-1-1v-.43a124.51,124.51,0,0,1-19,2.37q-5.71,0-6.45-3.68c0-1.56.83-3.19,2.47-4.9a13.45,13.45,0,0,1,5.83-3.45c1,0,1.55.44,1.55,1.31C636.79,236.15,636.76,236.22,636.72,236.34Zm15.38,4.08a4.65,4.65,0,0,0-.09-.73c-.13-.64-1-1-2.57-1s-6.28.7-14.27,1.7q-.09.63-.15,1a.82.82,0,0,0,.93.92A134.4,134.4,0,0,0,652.1,240.42Z" transform="translate(-433.48 -205)"/><path class="cls-1" d="M693.44,256.72c-.12.55-.24,1-.33,1.41a90.93,90.93,0,0,1,9.89-.58c5,.65,8,2.84,9,6.6a33.87,33.87,0,0,1,.44,5q0,1-1.17,1h-5.53c-.74,0-1.12-.45-1.12-1.35v-.59a204.78,204.78,0,0,1-25,1.94q-5.45,0-6.07-3.68a7.55,7.55,0,0,1,2.23-4.86,11.88,11.88,0,0,1,5.24-3.3c1,0,1.51.39,1.51,1.17l-.2.39c1.65-.26,3.27-.54,4.86-.83.29-.61.58-1.18.87-1.7-1.49.13-3,.2-4.46.2q-5.1,0-5.63-3.16A6.31,6.31,0,0,1,680,250a12.34,12.34,0,0,1,5-3.11c-1.91.13-3.94.33-6.11.59q-1.07,2.72-2.14,5.38a1.08,1.08,0,0,1-.72.24,14.37,14.37,0,0,1-4.57-1.35,1.38,1.38,0,0,1-.58-1.22c.49-1.55,1.88-3.56,4.18-6l1.64-1.31a.41.41,0,0,1-.33-.2.66.66,0,0,1-.73-.63c.13-.48.4-1.33.82-2.52s1.17-2.4,1.85-3.69a14.41,14.41,0,0,1,.68-1.31,9.28,9.28,0,0,1-2.33,1.12.93.93,0,0,1-.93-.54c-.25-.94-.55-2-.87-3.15s-.73-2.41-1.11-3.83c0-.68.3-1,.92-1a7.75,7.75,0,0,1,3.05,1.79,16,16,0,0,1,2.82,3.06c2-3.11,3.69-5.18,5.14-6.21a2.88,2.88,0,0,1,1.41-1c.74,0,1.11.47,1.11,1.4-.64,1.3-1.24,2.59-1.79,3.89a24.24,24.24,0,0,1,3.4-1.56l.82-.38a1.8,1.8,0,0,1,1.17,0,.62.62,0,0,1,.48.58v.34c-.06.39-2,2.34-5.73,5.87a.71.71,0,0,1-.58.34c-.29,0-.77-.31-1.45-.92-.26.51-.5,1-.73,1.5l7.71,3.15a1.15,1.15,0,0,1,.49.93,5.09,5.09,0,0,1-1.6,1.74l4.17-.34a1,1,0,0,1-.39-.58,16.3,16.3,0,0,1,.83-2.33c.52-1,1.11-2.13,1.79-3.3,0-.13,0-.19.05-.19a1.84,1.84,0,0,1-.92.34,1,1,0,0,1-1-.54c-.26-.8-.55-1.79-.87-3-.39-1-.8-2.15-1.22-3.44,0-.68.33-1,1-1a9.62,9.62,0,0,1,3.06,1.6c1,.91,1.83,1.62,2.38,2.14a19.09,19.09,0,0,1,4.66-5.29,3.5,3.5,0,0,1,1.45-1,1.25,1.25,0,0,1,1.12,1.4c-.68,1.3-1.3,2.59-1.85,3.89q2-.82,4.9-1.94l.88-.44a1.63,1.63,0,0,1,1.11,0,.71.71,0,0,1,.49.63V229c-.07.35-2.15,2.23-6.26,5.63a1,1,0,0,1-.63.19c-.29,0-.81-.4-1.55-1.21a.57.57,0,0,0-.39-.2,2.15,2.15,0,0,0-.29.59,1.8,1.8,0,0,0-.25.43l9.51,3.64a1.06,1.06,0,0,1,.49.83,7.13,7.13,0,0,1-2.09,2.52,6,6,0,0,1,2.91,4.07,14.41,14.41,0,0,1,1.07,5c-.1.68-.42,1-1,1H707.9c-.51,0-.77-.27-.77-.82a33.2,33.2,0,0,1,.24-4.47c-.23-.87-1.1-1.31-2.62-1.31q-3.15,0-19.7,1.94c.74,0,1.18.26,1.31.78a88.24,88.24,0,0,1,10.43-1.41q8.3,0,9.66,5.1a11.31,11.31,0,0,1,.92,4.07c-.06.75-.32,1.12-.78,1.12h-4.65c-.75,0-1.12-.24-1.12-.73v-.19A64.79,64.79,0,0,1,693.44,256.72Zm-7.18-14.16a5.87,5.87,0,0,0-.68-.39c-1.22-.62-2.41-1.26-3.54-1.94a6.32,6.32,0,0,1-.39,1,17.65,17.65,0,0,1-.92,2.14Q683.7,243,686.26,242.56Zm18.44,21.59V264q-.29-2.13-4.56-2.52a86.86,86.86,0,0,0-19.17,3.3c0,.65.3,1,.88,1Q692.19,265.51,704.7,264.15Zm-19.65-12.62a6.73,6.73,0,0,0-.19,1.12c0,.68.27,1,.82,1a119.66,119.66,0,0,0,15.14-1.94c-.16-1.17-1.26-1.75-3.3-1.75A64.9,64.9,0,0,0,685.05,251.53Zm19.85-11.11c-1.43-.61-2.8-1.26-4.13-1.94-.22.55-.44,1.07-.63,1.55l-.39,1C701.73,240.79,703.44,240.58,704.9,240.42Z" transform="translate(-433.48 -205)"/></svg>