<svg xmlns="http://www.w3.org/2000/svg" viewBox="0 0 52.17 25.84"><defs><style>.cls-1,.cls-2,.cls-3,.cls-4,.cls-5{fill:#408560;stroke:#408560;stroke-miterlimit:10;}.cls-1{stroke-width:0.91px;}.cls-2{stroke-width:0.91px;}.cls-3{stroke-width:0.77px;}.cls-4{stroke-width:0.66px;}.cls-5{stroke-width:0.83px;}</style></defs><g id="圖層_2" data-name="圖層 2"><g id="圖層_1-2" data-name="圖層 1"><path class="cls-1" d="M17.72,9.37c3.08.81,5.45,2.72,12.72-.91C45.89.28,51.7,17.21,43.17,22.09c-12.73,7.27-30.06.44-37.27-.91C-1.46,19.81-4.53,3.47,17.72,9.37Z"/><ellipse class="cls-2" cx="44.46" cy="2.85" rx="2.73" ry="1.82" transform="translate(13.54 34.93) rotate(-49.72)"/><ellipse class="cls-3" cx="47.64" cy="6.74" rx="2.1" ry="1.5" transform="translate(5.66 30.25) rotate(-37.3)"/><ellipse class="cls-4" cx="49.79" cy="11.63" rx="1.6" ry="1.2" transform="translate(-0.83 18.82) rotate(-21.23)"/><ellipse class="cls-5" cx="50.27" cy="15.76" rx="1.5" ry="1" transform="translate(-2 9.17) rotate(-10.22)"/><ellipse class="cls-5" cx="49.27" cy="19.76" rx="1.5" ry="1" transform="translate(-2.72 9.06) rotate(-10.22)"/></g></g></svg>