<svg xmlns="http://www.w3.org/2000/svg" viewBox="0 0 281.07 70.5"><defs><style>.cls-1{fill:#408560;}</style></defs><g id="圖層_2" data-name="圖層 2"><g id="圖層_1-2" data-name="圖層 1"><path class="cls-1" d="M87.78,70.5H13.46l.13-1.12C15.68,52,32.69,2.1,50.13.08V0h2V.09c17.38,2,33.33,49.24,35.52,69.3Zm-72-2H85.54C82.65,45.51,65.8,2.3,51.14,2,35.82,2.17,18.57,48.32,15.73,68.5Z"/><path class="cls-1" d="M13.77,70.08c-.61-.87-15-21.29-13.68-29.36C2.81,24.27,41.4-1,50.25,0L50,2c-7.63-.88-45.48,24-48,39-1,6,9.29,22.16,13.34,27.87Z"/><path class="cls-1" d="M27.59,69.76l-1.92-.53C35.08,35,44.11,18.57,53.25,19c14.88.79,22.81,48.28,23.14,50.31l-2,.32C72.24,56.33,64.17,21.61,53.15,21,47.67,20.74,38.8,29,27.59,69.76Z"/><path class="cls-1" d="M26.2,69.8l3.62-4.39C41.4,51.39,38.94,47,38.91,47l-.5-.8.8-.51c11-6.32,11.59-25.24,11.6-25.43l1.83,0C52.64,52.8,31.23,66.64,31,66.77Zm14.61-23c.43,1.59.44,5.32-4.23,12.54A53.55,53.55,0,0,0,48.4,38,21.66,21.66,0,0,1,40.81,46.83Z"/><rect class="cls-1" x="50.81" y="20.25" width="2" height="49.25" transform="translate(-0.16 0.19) rotate(-0.21)"/><path class="cls-1" d="M108,41.39a94.72,94.72,0,0,1-4.48,12.72q-1.95,4.16-3.43,4.16c-.6,0-1.33-.68-2.21-2.05a7.31,7.31,0,0,1-1.31-3.89,9.57,9.57,0,0,1,1.17-4.19,36.43,36.43,0,0,1,3.76-5.71,78.07,78.07,0,0,0,1.67-7.81,43.63,43.63,0,0,0,.56-6.6q0-.63-.06-1.68c0-.69-.11-1.67-.21-2.93L111,21.52q-.12,2.28-.78,6.7c-.43,3-1,6.2-1.72,9.74,1.52-.59,3.08-1.16,4.67-1.68s3.23-1,4.89-1.45q.85-3.11,1.81-5.94c.64-1.89,1.3-3.69,2-5.39l8-2a90.68,90.68,0,0,0-6.35,16.07,52.76,52.76,0,0,0-2.14,14.23c0,1.21,0,2.13,0,2.75s.06,1.2.11,1.74l-7.45,2V57a57,57,0,0,1,.63-8.3,76.32,76.32,0,0,1,1.89-8.92c-.35,0-.71-.09-1.06-.12s-.7,0-1,0a12.86,12.86,0,0,0-3.35.45A14.52,14.52,0,0,0,108,41.39Z"/><path class="cls-1" d="M134.52,58.39A14.81,14.81,0,0,1,130,54.55a7.32,7.32,0,0,1-1.54-4.41,17.29,17.29,0,0,1,2.7-9.22,20,20,0,0,1,7.39-7l1.75,1.57,6.5-1.62.85.8a12,12,0,0,1,.7,2.34,13,13,0,0,1,.25,2.51,18.09,18.09,0,0,1-3.85,11A24.28,24.28,0,0,1,134.52,58.39Zm1.35-4.78a17,17,0,0,0,4.75-5.48,14.23,14.23,0,0,0,1.56-6.65,9.64,9.64,0,0,0-.26-2.28,7.23,7.23,0,0,0-.78-1.89l-.75,0a17.25,17.25,0,0,0-3.95,6.33,21.52,21.52,0,0,0-1.56,7.74c0,.16,0,.32,0,.48s0,.42.09.76Z"/><path class="cls-1" d="M152.13,53.22c0-.48-.06-.95-.07-1.4s0-.93,0-1.43a32.41,32.41,0,0,1,.81-6.89,57.19,57.19,0,0,1,2.47-8l7-1.58A52,52,0,0,0,159,42.76a31,31,0,0,0-1.15,7.77v.2l.85.89a7.83,7.83,0,0,0,2.38-1.68A27.18,27.18,0,0,0,164,46.5q.24-6.84,2.16-9.7c1.28-1.91,3.32-2.86,6.14-2.86a1.64,1.64,0,0,1,1.11.3,1.24,1.24,0,0,1,.34,1A9,9,0,0,1,172.65,39a21.26,21.26,0,0,1-3,4.47c0,.13,0,.27,0,.43s0,.36,0,.62a18.34,18.34,0,0,0,.33,3.59,9.28,9.28,0,0,0,1,2.76,28.36,28.36,0,0,0,5.21-6.17c1.49-2.36,2.24-3.92,2.24-4.7,0-.08-.23-.79-.7-2.13a11.81,11.81,0,0,1-.69-3.83,2.49,2.49,0,0,1,.34-1.27,8.33,8.33,0,0,1,1.53-1.57A23.94,23.94,0,0,1,181.61,29a3.14,3.14,0,0,1,1.52-.48,1.13,1.13,0,0,1,.88.3,1.56,1.56,0,0,1,.26,1,28,28,0,0,1-1.79,8.07,53.62,53.62,0,0,1-4.61,10.13,47.38,47.38,0,0,1-5.25,7.28c-1.81,2-3,3-3.65,3s-1.34-.78-2.18-2.34a27.57,27.57,0,0,1-2.19-6,47.21,47.21,0,0,1-4.77,6c-1.56,1.61-2.57,2.42-3,2.42-.29,0-1-.55-2.13-1.66A12.19,12.19,0,0,1,152.13,53.22Z"/><path class="cls-1" d="M219.21,41.24a4.59,4.59,0,0,1,2.81.82,3.89,3.89,0,0,1,1,2.72q0,1.56-4,4.08,7.41-.78,13.34-1c.55.16.82.44.82.82a5.72,5.72,0,0,1-.82,1.56,9.68,9.68,0,0,1-.92,1.89c-.07.81-.71,1.21-1.94,1.21q-6,.34-11.16,1v.78q-1.08,6-12.13,9.9a3.9,3.9,0,0,1-1.9.77,2.07,2.07,0,0,1-1.74-.58,5.86,5.86,0,0,1-.73-2.13,17.11,17.11,0,0,1-.19-2.77,1.65,1.65,0,0,1,.92-1.5q9.75-2.15,10.14-3.89l-2.33.39q-19.45,2.67-21.16,2.67a7.86,7.86,0,0,1-2.42-.34,1.47,1.47,0,0,1-.68-1.41,7.89,7.89,0,0,1,2.18-3.44c1.1-1.17,2.07-1.75,2.91-1.75.36.26.71.5,1.07.73a2.66,2.66,0,0,0,1.7.39q5.82-.59,17.27-2.14a2.27,2.27,0,0,0-.48-.58l-.1-.14.1-.2a39.29,39.29,0,0,0,4.75-2.33c0-.39-.29-.58-.87-.58a80.8,80.8,0,0,0-8.54,1.31q-6.31,1.8-10.77,3.15c-1.23,0-1.85-.45-1.85-1.35a9,9,0,0,1,1.36-3.55,7.15,7.15,0,0,1,2.38-2.33l.68.39a1.49,1.49,0,0,0,.78.83Q212.76,41.25,219.21,41.24ZM213.14,23h1.41a152.8,152.8,0,0,0,15.19-1.95c.32,0,.48.22.48.64-.45,1-.92,2.11-1.4,3.25a2,2,0,0,1-1.9,1.55,98.75,98.75,0,0,1-11.35,1.79,165.24,165.24,0,0,1-21.93,1.17c-2.1-.42-3.15-1.21-3.15-2.38q.52-2.33,4.22-4.66h.82a3,3,0,0,1,1,.83,4.3,4.3,0,0,0,2.72.58c2.65,0,5.34-.06,8.05-.19a7.21,7.21,0,0,1,1.41-1.94,5.31,5.31,0,0,1,3.69-1.75c.55,0,.82.37.82,1.11S213.18,22.38,213.14,23Zm-9.89,8.34c2.2-.39,4.36-.76,6.5-1.11l8.93-1q5.38,0,6.89,5.48a25.21,25.21,0,0,1,1,5.63c0,.39-.22.58-.64.58h-6a.85.85,0,0,1-1-1v-.44a123.61,123.61,0,0,1-19,2.38q-5.73,0-6.46-3.69,0-2.32,2.48-4.9a13.34,13.34,0,0,1,5.82-3.44c1,0,1.55.43,1.55,1.31C203.31,31.15,203.28,31.21,203.25,31.34Zm15.38,4.08a4.21,4.21,0,0,0-.1-.73c-.13-.65-1-1-2.57-1s-6.28.69-14.27,1.7c-.06.42-.11.76-.14,1a.82.82,0,0,0,.92.92A136.86,136.86,0,0,0,218.63,35.42Z"/><path class="cls-1" d="M260,51.72c-.13.55-.24,1-.34,1.41a91.25,91.25,0,0,1,9.9-.58q7.52,1,9,6.59a34,34,0,0,1,.44,5c0,.68-.39,1-1.16,1h-5.54c-.74,0-1.11-.45-1.11-1.36v-.58a207,207,0,0,1-25,1.94q-5.43,0-6.06-3.69a7.48,7.48,0,0,1,2.23-4.85,11.83,11.83,0,0,1,5.24-3.3q1.5,0,1.5,1.17l-.19.38c1.65-.25,3.27-.53,4.85-.82.29-.61.58-1.18.87-1.7-1.48.13-3,.2-4.46.2-3.4,0-5.27-1.06-5.63-3.16A6.32,6.32,0,0,1,246.53,45a12.11,12.11,0,0,1,5-3.11q-2.86.2-6.12.58-1.07,2.71-2.13,5.39a1.13,1.13,0,0,1-.73.24A14,14,0,0,1,238,46.72a1.34,1.34,0,0,1-.58-1.21q.72-2.32,4.17-6l1.65-1.31a.42.42,0,0,1-.34-.19.67.67,0,0,1-.73-.63c.13-.49.4-1.33.83-2.53s1.16-2.39,1.84-3.68c.23-.49.45-.92.68-1.31A9,9,0,0,1,243.18,31a.91.91,0,0,1-.92-.53c-.26-.94-.55-2-.88-3.15s-.72-2.41-1.11-3.84c0-.68.31-1,.92-1a7.88,7.88,0,0,1,3.06,1.8,16,16,0,0,1,2.81,3.06c2-3.11,3.69-5.18,5.14-6.22a3,3,0,0,1,1.41-1c.75,0,1.12.47,1.12,1.41-.65,1.3-1.25,2.59-1.8,3.88a24.27,24.27,0,0,1,3.4-1.55l.82-.39a1.8,1.8,0,0,1,1.17,0c.32.13.48.33.48.58v.34q-.09.58-5.72,5.88a.71.71,0,0,1-.58.33c-.3,0-.78-.3-1.46-.92-.26.52-.5,1-.73,1.51L258,34.3a1.16,1.16,0,0,1,.48.92,5.11,5.11,0,0,1-1.6,1.75l4.17-.34a.92.92,0,0,1-.38-.58,16,16,0,0,1,.82-2.33q.78-1.56,1.8-3.3c0-.13,0-.19,0-.19a1.81,1.81,0,0,1-.92.33,1,1,0,0,1-1-.53c-.26-.81-.55-1.79-.87-3-.39-1-.79-2.15-1.21-3.44,0-.68.32-1,1-1a9.69,9.69,0,0,1,3.05,1.6c1,.9,1.83,1.62,2.38,2.13a19.41,19.41,0,0,1,4.66-5.29,3.67,3.67,0,0,1,1.45-1A1.26,1.26,0,0,1,273,21.49c-.68,1.3-1.29,2.59-1.84,3.88,1.29-.55,2.92-1.19,4.9-1.94L277,23a1.66,1.66,0,0,1,1.12,0,.72.72,0,0,1,.48.63V24q-.09.54-6.26,5.63a1,1,0,0,1-.63.2c-.29,0-.81-.41-1.55-1.22a.6.6,0,0,0-.39-.19,2.38,2.38,0,0,0-.29.58,1.7,1.7,0,0,0-.24.44l9.51,3.64a1.08,1.08,0,0,1,.48.82,7,7,0,0,1-2.08,2.53A6,6,0,0,1,280,40.51a14.42,14.42,0,0,1,1.06,5c-.09.68-.42,1-1,1h-5.67c-.52,0-.78-.28-.78-.83a33.14,33.14,0,0,1,.24-4.46c-.22-.87-1.1-1.31-2.62-1.31q-3.15,0-19.7,1.94c.75,0,1.18.26,1.31.78a88.62,88.62,0,0,1,10.44-1.41q8.3,0,9.65,5.09a11.44,11.44,0,0,1,.92,4.08c-.06.74-.32,1.12-.77,1.12h-4.66c-.74,0-1.12-.25-1.12-.73v-.2A64.66,64.66,0,0,1,260,51.72Zm-7.18-14.17a6.85,6.85,0,0,0-.68-.39c-1.23-.61-2.41-1.26-3.54-1.94a6.89,6.89,0,0,1-.39,1,19.56,19.56,0,0,1-.92,2.14Q250.21,38,252.79,37.55Zm18.43,21.59V59q-.29-2.13-4.56-2.52a86.78,86.78,0,0,0-19.16,3.3c0,.64.29,1,.87,1Q258.71,60.51,271.22,59.14ZM251.57,46.53a8.07,8.07,0,0,0-.19,1.11c0,.68.27,1,.82,1a117.64,117.64,0,0,0,15.14-1.94Q267.1,45,264,45A64.2,64.2,0,0,0,251.57,46.53Zm19.85-11.11c-1.42-.62-2.8-1.26-4.13-1.94L266.66,35c-.16.42-.29.76-.38,1C268.25,35.79,270,35.58,271.42,35.42Z"/></g></g></svg>