<svg xmlns="http://www.w3.org/2000/svg" viewBox="0 0 87.78 70.5"><defs><style>.cls-1{fill:#fff;}</style></defs><g id="圖層_2" data-name="圖層 2"><g id="圖層_1-2" data-name="圖層 1"><path class="cls-1" d="M87.78,70.5H13.46l.13-1.12C15.68,52,32.69,2.1,50.13.08V0h2V.09c17.38,2,33.33,49.24,35.52,69.3Zm-72-2H85.54C82.65,45.51,65.8,2.3,51.14,2,35.82,2.17,18.57,48.32,15.73,68.5Z"/><path class="cls-1" d="M13.77,70.08c-.61-.87-15-21.29-13.68-29.36C2.81,24.27,41.4-1,50.25,0L50,2c-7.63-.88-45.48,24-48,39-1,6,9.29,22.16,13.34,27.87Z"/><path class="cls-1" d="M27.59,69.76l-1.92-.53C35.08,35,44.11,18.57,53.25,19c14.88.79,22.81,48.28,23.14,50.31l-2,.32C72.24,56.33,64.17,21.61,53.15,21,47.67,20.74,38.8,29,27.59,69.76Z"/><path class="cls-1" d="M26.2,69.8l3.62-4.39C41.4,51.39,38.94,47,38.91,47l-.5-.8.8-.51c11-6.32,11.59-25.24,11.6-25.43l1.83,0C52.64,52.8,31.23,66.64,31,66.77Zm14.61-23c.43,1.59.44,5.32-4.23,12.54A53.55,53.55,0,0,0,48.4,38,21.66,21.66,0,0,1,40.81,46.83Z"/><rect class="cls-1" x="50.81" y="20.25" width="2" height="49.25" transform="translate(-0.16 0.19) rotate(-0.21)"/></g></g></svg>