<svg xmlns="http://www.w3.org/2000/svg" viewBox="0 0 65.21 65.21"><defs><style>.cls-1{fill:#88c6a5;}.cls-2{fill:#006837;}.cls-3,.cls-4{fill:#d28226;}.cls-4{font-size:7.86px;font-family:DFPuDing-UB-HKP-BF, DFPPuDing-B5;}</style></defs><g id="圖層_2" data-name="圖層 2"><g id="圖層_1-2" data-name="圖層 1"><path class="cls-1" d="M32.6,64.55a6.31,6.31,0,0,1-4.51-1.87L2.53,37.12a6.39,6.39,0,0,1,0-9L28.08,2.53a6.37,6.37,0,0,1,9,0L62.68,28.08a6.4,6.4,0,0,1,0,9L37.12,62.68A6.32,6.32,0,0,1,32.6,64.55Z"/><path class="cls-2" d="M32.6,1.31A5.7,5.7,0,0,1,36.66,3L62.22,28.55a5.73,5.73,0,0,1,0,8.11L36.66,62.22a5.73,5.73,0,0,1-8.11,0L3,36.66a5.73,5.73,0,0,1,0-8.11L28.55,3A5.7,5.7,0,0,1,32.6,1.31M32.6,0a7.05,7.05,0,0,0-5,2.06L2.06,27.62a7.06,7.06,0,0,0,0,10L27.62,63.14a7,7,0,0,0,10,0L63.14,37.59a7,7,0,0,0,0-10L37.59,2.06A7.06,7.06,0,0,0,32.6,0Z"/><circle class="cls-3" cx="29.51" cy="10.8" r="4.2"/><path class="cls-3" d="M35.84,28.21s0-.06,0-.07c-.27-.53-3.68-3.16-5-3.16V24.2s3.94-2.89,3.67-3.42c0-.26-1.57-4.73-2.89-5.25,0,0-1.84-.27-2.1-.27s0-.26,0-.26l-2.73-1-.16.22a5.71,5.71,0,0,0-2.36-.79c-1.05,0-6,6.57-6,7.1s-1.32,1.84,4.72,6.3c.27.26,1.58-.52.27-1.84l-2.37-3.15a24,24,0,0,1,2.37-3.15c.26,0-.27,5.25-.27,5.25s1.58,1.58,1.32,2.63l2.1,2.1s3.94-.79,6.3,1.84v1.84s1.06,0,2.37,1.58C35,33.92,36.34,28.92,35.84,28.21Zm-5-9.27s1.31,1,1.31,1.31-1.31,1.58-1.31,1.58Z"/><path class="cls-3" d="M22.94,28.14l2.63,2.62s-5,13.66-6.3,11c-.27-2.89,2.62-13.66,3.67-13.66"/><path class="cls-3" d="M22.68,27.35S24,27.08,24,26.82s7.35,7.62,7.35,7.62l1.84-1.58s3.42,3.42,3.15,7.1h1s2.1-4.47,4.47-1.58c1.58-2.36,4.2-.26,5.25,2.37H31.88s-3.68-2.11-3.68-2.89l2.36-2.37Z"/><text class="cls-4" transform="translate(20.81 49.54)">施工中</text></g></g></svg>